<?xml version="1.0" standalone="no"?>
<!DOCTYPE svg PUBLIC "-//W3C//DTD SVG 20010904//EN"
 "http://www.w3.org/TR/2001/REC-SVG-20010904/DTD/svg10.dtd">
<svg version="1.0" xmlns="http://www.w3.org/2000/svg"
 width="1225.000000pt" height="1330.000000pt" viewBox="0 0 1225.000000 1330.000000"
 preserveAspectRatio="xMidYMid meet">

<g transform="translate(0.000000,1330.000000) scale(0.100000,-0.100000)"
fill="#000000" stroke="none">
<path d="M5630 13257 c-360 -147 -713 -331 -935 -486 -170 -118 -341 -311
-429 -481 -96 -185 -130 -353 -130 -630 1 -281 37 -526 140 -935 101 -397 260
-798 367 -920 l22 -25 105 53 c289 147 641 407 788 582 303 360 452 822 413
1280 -12 141 -20 189 -105 582 -103 474 -154 869 -128 981 5 23 7 42 3 42 -3
0 -53 -20 -111 -43z"/>
<path d="M4094 10480 c3 -8 30 -76 61 -150 280 -670 531 -1518 649 -2190 84
-475 100 -669 101 -1180 0 -399 -19 -1270 -30 -1370 -2 -25 -10 -111 -16 -191
l-11 -146 -87 -7 c-332 -25 -616 -213 -714 -471 l-22 -60 -3 -824 c-3 -900 -5
-867 55 -986 108 -215 351 -368 646 -405 146 -19 487 -8 592 18 167 42 298
114 406 221 82 82 136 169 166 266 17 56 18 114 18 865 0 802 0 805 -22 875
-88 279 -374 473 -738 503 l-90 7 -3 205 c-1 113 2 608 7 1100 10 935 11 962
56 1110 42 136 172 318 351 490 158 152 429 344 474 337 14 -2 77 -20 140 -40
307 -94 733 -117 1160 -61 570 74 897 276 1176 727 69 110 209 379 258 496 30
68 33 82 19 76 -116 -45 -441 -74 -983 -90 -224 -7 -311 -15 -470 -46 -307
-61 -650 -225 -882 -423 -120 -102 -285 -301 -403 -483 -26 -40 -54 -70 -80
-84 -22 -12 -86 -53 -143 -91 -274 -181 -503 -415 -687 -703 -38 -58 -69 -104
-70 -103 -2 2 -12 66 -25 143 -112 714 -345 1513 -650 2225 -77 181 -218 480
-206 440z m722 -5492 c-30 -180 -50 -291 -72 -386 -14 -62 -23 -124 -20 -137
8 -32 227 -445 236 -445 7 0 44 231 60 380 14 134 30 407 30 523 l0 97 34 0
c68 0 189 -30 262 -65 93 -45 179 -127 220 -210 l29 -60 0 -815 0 -815 -29
-59 c-61 -125 -206 -227 -368 -260 -102 -21 -376 -21 -473 -1 -163 35 -305
137 -368 264 l-32 66 0 805 0 805 31 66 c71 150 239 253 452 278 9 1 11 -8 8
-31z"/>
<path d="M4879 3912 c-25 -23 -33 -38 -36 -78 -5 -46 -2 -54 27 -87 57 -65
145 -58 190 15 51 84 -4 178 -104 178 -36 0 -52 -6 -77 -28z"/>
<path d="M1790 10229 c-309 -28 -638 -185 -906 -431 -209 -191 -476 -499 -710
-818 -68 -91 -174 -246 -174 -252 0 -2 24 -4 53 -5 180 -6 678 -198 1342 -518
384 -185 651 -258 990 -271 468 -19 940 124 1294 391 175 133 368 302 505 445
114 120 236 265 236 282 0 33 -227 233 -410 360 -341 237 -963 549 -1365 685
-318 108 -617 154 -855 132z"/>
<path d="M1750 5244 c-177 -32 -285 -70 -391 -139 -134 -87 -229 -199 -279
-330 -31 -82 -40 -287 -16 -389 43 -181 171 -321 394 -430 84 -40 178 -73 647
-223 268 -86 429 -193 493 -329 26 -56 27 -67 27 -204 0 -141 -1 -147 -29
-200 -65 -124 -224 -232 -388 -265 -104 -20 -372 -20 -476 0 -117 24 -231 83
-307 158 -96 97 -125 171 -125 328 0 77 -1 79 -22 74 -22 -5 -254 -35 -270
-35 -12 0 -10 -151 3 -212 47 -219 254 -421 519 -506 134 -43 175 -47 450 -46
252 0 270 2 360 26 322 87 553 304 591 558 14 88 6 239 -16 324 -48 185 -207
344 -448 449 -51 22 -233 86 -405 143 -173 58 -351 122 -396 143 -149 72 -241
153 -289 258 -18 41 -22 66 -22 163 0 110 2 118 32 181 57 116 176 209 329
256 49 15 93 18 269 18 203 0 213 -1 288 -28 147 -51 248 -134 301 -247 26
-55 31 -79 34 -162 4 -94 5 -98 26 -93 11 2 62 9 111 15 50 6 107 13 128 16
l37 6 0 80 c0 236 -173 461 -443 574 -137 58 -193 66 -452 70 -132 1 -251 0
-265 -2z"/>
<path d="M7052 4123 l3 -1088 22 -58 c88 -231 304 -401 591 -465 111 -25 543
-25 654 0 287 64 504 234 587 462 l26 71 3 1083 2 1082 -150 0 -149 0 -3
-1068 -3 -1068 -37 -75 c-59 -119 -167 -206 -313 -252 -63 -20 -91 -22 -290
-22 -199 0 -227 2 -290 22 -146 46 -254 133 -313 252 l-37 75 -3 1068 -3 1068
-150 0 -150 0 3 -1087z"/>
<path d="M10090 3870 l0 -1340 795 0 795 0 0 115 0 115 -645 0 -645 0 0 1225
0 1225 -150 0 -150 0 0 -1340z"/>
<path d="M1405 2265 c-176 -38 -317 -144 -365 -272 -20 -54 -21 -69 -18 -547
l3 -491 28 -54 c59 -110 187 -200 337 -235 78 -19 324 -21 402 -5 70 15 149
51 212 96 l50 36 56 -62 c48 -54 60 -62 86 -59 l29 3 0 413 0 413 -265 0 -265
0 -3 -66 -3 -65 171 0 170 0 0 -190 c0 -217 -5 -236 -80 -304 -53 -47 -113
-73 -203 -87 -88 -14 -254 -6 -322 15 -104 32 -186 109 -206 193 -5 21 -9 232
-9 469 0 492 1 502 72 571 24 23 70 55 103 70 56 26 70 28 217 31 179 4 234
-6 314 -60 75 -51 107 -104 112 -186 2 -37 5 -72 7 -78 2 -7 30 -7 96 0 l94
11 -2 70 c-6 175 -157 323 -378 370 -88 19 -356 19 -440 0z"/>
<path d="M3391 2228 c-5 -13 -144 -366 -310 -785 -165 -419 -301 -765 -301
-768 0 -3 44 -5 99 -5 l99 0 57 153 c32 83 64 167 71 185 l13 32 338 -2 337
-3 70 -182 69 -183 100 0 c90 0 99 2 93 17 -4 10 -144 366 -313 791 l-306 772
-54 0 c-46 0 -55 -3 -62 -22z m228 -736 c66 -172 121 -315 121 -317 0 -8 -559
-5 -563 3 -2 4 58 169 134 367 77 198 139 367 139 375 1 8 11 -14 24 -50 13
-36 78 -206 145 -378z"/>
<path d="M4690 1460 l0 -790 95 0 95 0 0 335 0 335 134 0 133 0 287 -335 287
-335 111 0 c103 0 110 1 97 17 -8 10 -135 159 -283 332 -282 329 -283 331
-206 331 109 0 259 68 346 154 85 86 104 139 104 296 0 98 -4 130 -22 177 -28
76 -118 167 -208 211 -123 60 -145 62 -577 62 l-393 0 0 -790z m825 631 c75
-30 155 -108 173 -167 15 -51 16 -196 1 -248 -16 -57 -100 -137 -174 -167 -57
-22 -73 -23 -347 -27 l-288 -4 0 322 0 322 288 -4 c274 -4 290 -5 347 -27z"/>
<path d="M6620 1460 l0 -790 383 0 c349 0 391 2 461 20 149 38 274 128 326
235 l25 50 3 471 c3 461 2 473 -19 529 -28 76 -120 169 -210 213 -120 58 -154
62 -581 62 l-388 0 0 -790z m752 649 c103 -22 193 -81 231 -153 22 -41 22 -46
22 -497 l0 -456 -30 -48 c-16 -26 -52 -63 -78 -81 -88 -60 -122 -66 -429 -71
l-278 -5 0 661 0 661 255 0 c150 0 276 -5 307 -11z"/>
<path d="M8580 1460 l0 -790 605 0 605 0 0 65 0 65 -505 0 -505 0 0 295 0 295
408 2 407 3 3 68 3 67 -411 0 -410 0 0 295 0 295 505 0 505 0 0 65 0 65 -605
0 -605 0 0 -790z"/>
<path d="M10460 1460 l0 -790 100 0 100 0 1 598 c1 328 4 587 7 575 4 -13 207
-282 451 -598 l444 -575 54 0 53 0 0 790 0 790 -97 0 -98 0 2 -595 c2 -327 1
-595 -1 -595 -3 0 -11 13 -18 28 -8 15 -211 283 -452 595 l-438 567 -54 0 -54
0 0 -790z"/>
</g>
</svg>
